<svg width="851.321240234375px" height="325.40498046875px" xmlns="http://www.w3.org/2000/svg" viewBox="-175.66062011718748 -87.702490234375 851.321240234375 325.40498046875" style="background: rgba(0, 0, 0, 0);" preserveAspectRatio="xMidYMid"><defs><linearGradient id="editing-shiny-gradient" x1="0" x2="1" y1="0.5" y2="0.5" gradientUnits="objectBoundingBox"><stop offset="0.0" stop-color="#ffb200"></stop><stop offset="0.5" stop-color="#e10057"></stop><stop offset="1.0" stop-color="#5A1A80"></stop></linearGradient><linearGradient id="editing-shiny-gradient2" x1="0" x2="0" y1="0" y2="1"><stop offset="0.2" stop-color="#fff" stop-opacity="0.8"></stop><stop offset="0.8" stop-color="#fff" stop-opacity="0"></stop></linearGradient><filter id="editing-shiny2" x="-100%" y="-100%" width="300%" height="300%"><feMorphology operator="erode" radius="2"></feMorphology></filter><filter id="editing-shiny" x="-100%" y="-100%" width="300%" height="300%"><feFlood flood-color="#fff" result="flood"></feFlood><feConvolveMatrix in="SourceGraphic" result="conv" order="8,8" divisor="1" kernelMatrix="0 0 0 0 0 0 0 0 0 0 0 1 1 0 0 0 0 0 0 1 1 0 0 0 0 0 1 0 0 1 0 0 0 0 1 0 0 1 0 0 0 1 0 0 0 0 1 0 0 1 1 0 0 1 1 0 0 0 0 1 1 0 0 0 "></feConvolveMatrix><feOffset dx="0" dy="4" in="conv" result="offset"></feOffset><feComposite operator="in" in="flood" in2="offset" result="comp"></feComposite><feGaussianBlur in="offset" stdDeviation="3" result="shadow"></feGaussianBlur><feColorMatrix in="shadow" type="matrix" values="0.7 0 0 0 0  0 0.7 0 0 0  0 0 0.7 0 0  0 0 0 0.3 0" result="dark-shadow"></feColorMatrix><feOffset dx="0" dy="4" in="dark-shadow" result="offset-shadow"></feOffset><feOffset dx="0" dy="2" in="conv" result="offset-2"></feOffset><feComposite operator="out" in="offset" in2="offset-2" result="edge-diff"></feComposite><feGaussianBlur in="edge-diff" stdDeviation="1" result="edge-blur"></feGaussianBlur><feColorMatrix in="edge-blur" result="edge-shadow" type="matrix" values="0 0 0 0 0  0 0 0 0 0  0 0 0 0 0  0 0 0 0.5 0"></feColorMatrix><feComposite operator="in" in="edge-shadow" in2="offset" result="edge-shadow-in"></feComposite><feOffset dx="0" dy="1" in="edge-shadow-in" result="edge-shadow-final"></feOffset><feMerge result="out"><feMergeNode in="offset-shadow"></feMergeNode><feMergeNode in="comp"></feMergeNode><feMergeNode in="edge-shadow-final"></feMergeNode><feMergeNode in="SourceGraphic"></feMergeNode></feMerge></filter></defs><g filter="url(#editing-shiny)"><g transform="translate(-56.67780876159668, 141.18499755859375)"><path d="M184.01-99.42L187.96-97.81L187.96-97.81Q183.93-84.43 179.10-72.43L179.10-72.43L179.10-72.43Q174.27-60.42 169.91-51.16L169.91-51.16L169.91-51.16Q164.92-40.36 159.84-31.18L159.84-31.18L159.84-31.18Q155.73-23.93 152.96-18.53L152.96-18.53L152.96-18.53Q150.18-13.13 148.48-9.31L148.48-9.31L148.48-9.31Q146.79-5.48 146.07-2.94L146.07-2.94L146.07-2.94Q145.34-0.40 145.34 1.21L145.34 1.21L145.34 1.21Q145.34 2.90 146.07 3.83L146.07 3.83L146.07 3.83Q146.79 4.75 147.80 5.24L147.80 5.24L147.80 5.24Q148.81 5.72 149.81 5.84L149.81 5.84L149.81 5.84Q150.82 5.96 151.46 5.96L151.46 5.96L151.46 5.96Q154.28 5.96 158.19 4.39L158.19 4.39L158.19 4.39Q162.10 2.82 166.65-0.04L166.65-0.04L166.65-0.04Q171.20-2.90 176.20-6.97L176.20-6.97L176.20-6.97Q181.19-11.04 186.11-16.11L186.11-16.11L186.11-16.11Q191.02-21.19 195.66-27.11L195.66-27.11L195.66-27.11Q200.29-33.03 204.16-39.64L204.16-39.64L204.16-39.64Q210.36-50.43 214.06-59.62L214.06-59.62L214.06-59.62Q211.73-64.21 210.60-69.09L210.60-69.09L210.60-69.09Q209.47-73.96 209.47-78.31L209.47-78.31L209.47-78.31Q209.47-84.59 211.45-88.38L211.45-88.38L211.45-88.38Q213.42-92.17 216.97-92.17L216.97-92.17L216.97-92.17Q218.90-92.17 220.23-91.20L220.23-91.20L220.23-91.20Q221.56-90.23 222.36-88.70L222.36-88.70L222.36-88.70Q223.17-87.17 223.53-85.36L223.53-85.36L223.53-85.36Q223.89-83.55 223.89-81.77L223.89-81.77L223.89-81.77Q223.89-77.99 222.81-73.07L222.81-73.07L222.81-73.07Q221.72-68.16 219.66-62.48L219.66-62.48L219.66-62.48Q217.61-56.80 214.63-50.47L214.63-50.47L214.63-50.47Q211.65-44.15 207.78-37.54L207.78-37.54L207.78-37.54Q203.91-30.94 199.20-24.85L199.20-24.85L199.20-24.85Q194.49-18.77 189.37-13.45L189.37-13.45L189.37-13.45Q184.26-8.14 178.98-3.75L178.98-3.75L178.98-3.75Q173.70 0.64 168.75 3.75L168.75 3.75L168.75 3.75Q163.79 6.85 159.32 8.58L159.32 8.58L159.32 8.58Q154.85 10.31 151.46 10.31L151.46 10.31L151.46 10.31Q145.10 10.31 141.47 7.41L141.47 7.41L141.47 7.41Q137.85 4.51 137.85-1.85L137.85-1.85L137.85-1.85Q137.85-5.32 138.78-8.78L138.78-8.78L138.78-8.78Q139.70-12.25 141.51-16.27L141.51-16.27L141.51-16.27Q143.33-20.30 145.99-25.10L145.99-25.10L145.99-25.10Q148.65-29.89 152.11-35.93L152.11-35.93L152.11-35.93Q144.05-25.22 134.75-15.19L134.75-15.19L134.75-15.19Q125.44-5.16 114.89 2.74L114.89 2.74L114.89 2.74Q110.13 6.28 106.19 8.66L106.19 8.66L106.19 8.66Q102.24 11.04 98.98 12.49L98.98 12.49L98.98 12.49Q95.71 13.94 93.05 14.54L93.05 14.54L93.05 14.54Q90.40 15.15 88.22 15.15L88.22 15.15L88.22 15.15Q85.08 15.15 82.78 14.26L82.78 14.26L82.78 14.26Q80.49 13.37 79.00 11.88L79.00 11.88L79.00 11.88Q77.50 10.39 76.82 8.34L76.82 8.34L76.82 8.34Q76.14 6.28 76.14 3.87L76.14 3.87L76.14 3.87Q76.14-0.16 77.34-3.79L77.34-3.79L77.34-3.79Q78.55-7.41 80.89-11.20L80.89-11.20L80.89-11.20Q83.55-15.39 87.21-20.46L87.21-20.46L87.21-20.46Q90.88-25.54 94.87-31.10L94.87-31.10L94.87-31.10Q98.85-36.66 102.76-42.46L102.76-42.46L102.76-42.46Q106.67-48.26 109.77-53.98L109.77-53.98L109.77-53.98Q112.87-59.70 114.77-65.10L114.77-65.10L114.77-65.10Q116.66-70.50 116.66-75.25L116.66-75.25L116.66-75.25Q116.66-82.74 113.72-88.95L113.72-88.95L113.72-88.95Q110.78-95.15 105.30-99.58L105.30-99.58L105.30-99.58Q99.82-104.01 92.05-106.43L92.05-106.43L92.05-106.43Q84.27-108.85 74.60-108.85L74.60-108.85L74.60-108.85Q61.31-108.85 50.19-104.98L50.19-104.98L50.19-104.98Q39.07-101.11 31.06-94.30L31.06-94.30L31.06-94.30Q23.04-87.50 18.57-78.27L18.57-78.27L18.57-78.27Q14.10-69.05 14.10-58.41L14.10-58.41L14.10-58.41Q14.10-51.88 16.15-46.53L16.15-46.53L16.15-46.53Q18.21-41.17 21.95-37.30L21.95-37.30L21.95-37.30Q25.70-33.44 31.06-31.30L31.06-31.30L31.06-31.30Q36.42-29.17 43.02-29.17L43.02-29.17L43.02-29.17Q50.68-29.17 57.20-31.86L57.20-31.86L57.20-31.86Q63.73-34.56 69.09-39.24L69.09-39.24L69.09-39.24Q74.44-43.91 78.63-50.23L78.63-50.23L78.63-50.23Q82.82-56.56 85.72-63.81L85.72-63.81L89.35-62.52L89.35-62.52Q81.53-43.10 68.64-33.15L68.64-33.15L68.64-33.15Q55.75-23.20 38.03-23.20L38.03-23.20L38.03-23.20Q30.53-23.20 24.41-25.74L24.41-25.74L24.41-25.74Q18.29-28.28 13.94-32.83L13.94-32.83L13.94-32.83Q9.59-37.38 7.21-43.71L7.21-43.71L7.21-43.71Q4.83-50.03 4.83-57.60L4.83-57.60L4.83-57.60Q4.83-67.84 8.22-75.97L8.22-75.97L8.22-75.97Q11.60-84.11 17.20-90.27L17.20-90.27L17.20-90.27Q22.80-96.44 29.93-100.79L29.93-100.79L29.93-100.79Q37.06-105.14 44.55-107.88L44.55-107.88L44.55-107.88Q52.05-110.62 59.22-111.87L59.22-111.87L59.22-111.87Q66.39-113.12 72.11-113.12L72.11-113.12L72.11-113.12Q82.90-113.12 92.09-110.50L92.09-110.50L92.09-110.50Q101.27-107.88 108.00-102.68L108.00-102.68L108.00-102.68Q114.73-97.49 118.51-89.83L118.51-89.83L118.51-89.83Q122.30-82.18 122.30-72.11L122.30-72.11L122.30-72.11Q122.30-64.78 119.52-55.87L119.52-55.87L119.52-55.87Q116.74-46.97 109.89-36.74L109.89-36.74L109.89-36.74Q103.61-27.31 98.45-20.38L98.45-20.38L98.45-20.38Q93.30-13.45 89.63-8.42L89.63-8.42L89.63-8.42Q85.96-3.38 83.95 0L83.95 0L83.95 0Q81.94 3.38 81.94 5.64L81.94 5.64L81.94 5.64Q81.94 7.98 83.63 9.43L83.63 9.43L83.63 9.43Q85.32 10.88 88.30 10.88L88.30 10.88L88.30 10.88Q92.57 10.88 98.65 7.98L98.65 7.98L98.65 7.98Q104.74 5.08 112.31-0.56L112.31-0.56L112.31-0.56Q119.80-6.12 126.61-12.81L126.61-12.81L126.61-12.81Q133.42-19.50 139.50-26.71L139.50-26.71L139.50-26.71Q145.58-33.92 150.98-41.41L150.98-41.41L150.98-41.41Q156.38-48.90 160.97-56.11L160.97-56.11L160.97-56.11Q165.56-63.33 169.35-70.05L169.35-70.05L169.35-70.05Q173.14-76.78 176.04-82.46L176.04-82.46L176.04-82.46Q178.94-88.14 180.95-92.53L180.95-92.53L180.95-92.53Q182.97-96.92 184.01-99.42L184.01-99.42ZM216.24-65.18L216.24-65.18L216.24-65.18Q218.09-70.33 218.90-74.52L218.90-74.52L218.90-74.52Q219.70-78.71 219.70-81.69L219.70-81.69L219.70-81.69Q219.70-82.26 219.66-83.35L219.66-83.35L219.66-83.35Q219.62-84.43 219.34-85.44L219.34-85.44L219.34-85.44Q219.06-86.45 218.50-87.21L218.50-87.21L218.50-87.21Q217.93-87.98 216.97-87.98L216.97-87.98L216.97-87.98Q215.60-87.98 214.67-85.24L214.67-85.24L214.67-85.24Q213.74-82.50 213.74-78.55L213.74-78.55L213.74-78.55Q213.74-75.57 214.31-72.15L214.31-72.15L214.31-72.15Q214.87-68.72 216.24-65.18ZM227.60-18.37L227.60-18.37L227.60-18.37Q227.44-17.40 227.36-16.44L227.36-16.44L227.36-16.44Q227.28-15.47 227.28-14.50L227.28-14.50L227.28-14.50Q227.28-11.60 228.12-8.98L228.12-8.98L228.12-8.98Q228.97-6.36 230.62-4.39L230.62-4.39L230.62-4.39Q232.27-2.42 234.73-1.29L234.73-1.29L234.73-1.29Q237.19-0.16 240.33-0.16L240.33-0.16L240.33-0.16Q250.88-0.16 260.71-7.33L260.71-7.33L260.71-7.33Q270.54-14.50 280.29-30.05L280.29-30.05L283.03-27.63L283.03-27.63Q277.71-18.77 272.23-12.69L272.23-12.69L272.23-12.69Q266.76-6.61 261.32-2.82L261.32-2.82L261.32-2.82Q255.88 0.97 250.64 2.66L250.64 2.66L250.64 2.66Q245.41 4.35 240.65 4.35L240.65 4.35L240.65 4.35Q237.19 4.35 233.32 3.38L233.32 3.38L233.32 3.38Q229.45 2.42 226.19 0.16L226.19 0.16L226.19 0.16Q222.93-2.09 220.79-5.88L220.79-5.88L220.79-5.88Q218.66-9.67 218.66-15.31L218.66-15.31L218.66-15.31Q218.66-21.35 220.71-26.95L220.71-26.95L220.71-26.95Q222.77-32.55 226.07-37.38L226.07-37.38L226.07-37.38Q229.37-42.22 233.64-46.20L233.64-46.20L233.64-46.20Q237.91-50.19 242.30-53.01L242.30-53.01L242.30-53.01Q246.69-55.83 250.88-57.40L250.88-57.40L250.88-57.40Q255.07-58.97 258.30-58.97L258.30-58.97L258.30-58.97Q260.39-58.97 262.57-58.33L262.57-58.33L262.57-58.33Q264.74-57.69 266.47-56.32L266.47-56.32L266.47-56.32Q268.21-54.95 269.29-52.69L269.29-52.69L269.29-52.69Q270.38-50.43 270.38-47.29L270.38-47.29L270.38-47.29Q270.38-43.02 268.41-39.28L268.41-39.28L268.41-39.28Q266.43-35.53 263.13-32.35L263.13-32.35L263.13-32.35Q259.83-29.17 255.48-26.63L255.48-26.63L255.48-26.63Q251.13-24.09 246.37-22.32L246.37-22.32L246.37-22.32Q241.62-20.54 236.78-19.50L236.78-19.50L236.78-19.50Q231.95-18.45 227.60-18.37ZM228.24-21.83L228.24-21.83L228.24-21.83Q233.64-22.40 238.40-24.09L238.40-24.09L238.40-24.09Q243.15-25.78 247.10-28.24L247.10-28.24L247.10-28.24Q251.04-30.70 254.15-33.60L254.15-33.60L254.15-33.60Q257.25-36.50 259.34-39.48L259.34-39.48L259.34-39.48Q261.44-42.46 262.57-45.20L262.57-45.20L262.57-45.20Q263.69-47.94 263.69-50.11L263.69-50.11L263.69-50.11Q263.69-52.29 262.53-53.58L262.53-53.58L262.53-53.58Q261.36-54.87 259.75-54.87L259.75-54.87L259.75-54.87Q256.20-54.87 251.77-52.33L251.77-52.33L251.77-52.33Q247.34-49.79 242.91-45.32L242.91-45.32L242.91-45.32Q238.48-40.85 234.57-34.80L234.57-34.80L234.57-34.80Q230.66-28.76 228.24-21.83ZM338.62-117.22L338.62-117.22L338.62-117.22Q341.44-117.22 343.33-115.85L343.33-115.85L343.33-115.85Q345.23-114.48 345.23-110.86L345.23-110.86L345.23-110.86Q345.23-108.36 344.22-104.90L344.22-104.90L344.22-104.90Q343.21-101.43 341.48-97.36L341.48-97.36L341.48-97.36Q339.75-93.30 337.41-88.82L337.41-88.82L337.41-88.82Q335.08-84.35 332.38-79.92L332.38-79.92L332.38-79.92Q329.68-75.49 326.74-71.30L326.74-71.30L326.74-71.30Q323.80-67.11 320.90-63.57L320.90-63.57L320.90-63.57Q315.10-56.40 310.87-51.48L310.87-51.48L310.87-51.48Q306.64-46.57 303.57-43.14L303.57-43.14L303.57-43.14Q300.51-39.72 298.42-37.58L298.42-37.58L298.42-37.58Q296.32-35.45 294.71-33.92L294.71-33.92L294.71-33.92Q293.10-32.39 291.73-31.14L291.73-31.14L291.73-31.14Q290.36-29.89 288.91-28.36L288.91-28.36L288.91-28.36Q288.27-25.30 288.31-22.52L288.31-22.52L288.31-22.52Q288.35-19.74 288.35-17.40L288.35-17.40L288.35-17.40Q288.35-10.39 290.60-7.01L290.60-7.01L290.60-7.01Q292.86-3.63 296.97-3.63L296.97-3.63L296.97-3.63Q299.71-3.63 302.49-5.04L302.49-5.04L302.49-5.04Q305.27-6.45 308.01-8.70L308.01-8.70L308.01-8.70Q310.74-10.96 313.32-13.82L313.32-13.82L313.32-13.82Q315.90-16.68 318.20-19.62L318.20-19.62L318.20-19.62Q320.49-22.56 322.35-25.30L322.35-25.30L322.35-25.30Q324.20-28.04 325.57-30.05L325.57-30.05L328.55-27.80L328.55-27.80Q328.31-27.47 326.98-25.26L326.98-25.26L326.98-25.26Q325.65-23.04 323.47-19.90L323.47-19.90L323.47-19.90Q321.30-16.76 318.32-13.17L318.32-13.17L318.32-13.17Q315.34-9.59 311.87-6.53L311.87-6.53L311.87-6.53Q308.41-3.46 304.58-1.45L304.58-1.45L304.58-1.45Q300.75 0.56 296.81 0.56L296.81 0.56L296.81 0.56Q293.50 0.56 290.48-0.68L290.48-0.68L290.48-0.68Q287.46-1.93 285.16-4.63L285.16-4.63L285.16-4.63Q282.87-7.33 281.46-11.52L281.46-11.52L281.46-11.52Q280.05-15.71 280.05-21.59L280.05-21.59L280.05-21.59Q280.05-28.92 281.78-36.94L281.78-36.94L281.78-36.94Q283.51-44.96 286.49-53.05L286.49-53.05L286.49-53.05Q289.48-61.15 293.50-69.05L293.50-69.05L293.50-69.05Q297.53-76.94 302.08-84.07L302.08-84.07L302.08-84.07Q306.64-91.20 311.59-97.28L311.59-97.28L311.59-97.28Q316.55-103.37 321.34-107.80L321.34-107.80L321.34-107.80Q326.13-112.23 330.56-114.73L330.56-114.73L330.56-114.73Q335.00-117.22 338.62-117.22ZM290.36-35.53L290.36-35.53L290.36-35.53Q297.21-42.62 303.61-49.91L303.61-49.91L303.61-49.91Q310.02-57.20 315.62-64.33L315.62-64.33L315.62-64.33Q321.22-71.46 325.89-78.19L325.89-78.19L325.89-78.19Q330.56-84.92 333.87-90.88L333.87-90.88L333.87-90.88Q337.17-96.84 339.02-101.76L339.02-101.76L339.02-101.76Q340.88-106.67 340.88-110.21L340.88-110.21L340.88-110.21Q340.88-110.86 340.23-111.95L340.23-111.95L340.23-111.95Q339.59-113.03 338.70-113.03L338.70-113.03L338.70-113.03Q336.20-113.03 332.09-109.73L332.09-109.73L332.09-109.73Q327.99-106.43 323.19-100.75L323.19-100.75L323.19-100.75Q318.40-95.07 313.28-87.50L313.28-87.50L313.28-87.50Q308.17-79.92 303.65-71.30L303.65-71.30L303.65-71.30Q299.14-62.68 295.60-53.50L295.60-53.50L295.60-53.50Q292.05-44.31 290.36-35.53ZM371.01-48.90L371.01-48.90L371.01-48.90Q371.49-50.19 371.49-51.64L371.49-51.64L371.49-51.64Q371.49-54.22 369.44-55.71L369.44-55.71L369.44-55.71Q367.38-57.20 362.95-57.20L362.95-57.20L362.95-57.20Q359.33-57.20 355.66-55.63L355.66-55.63L355.66-55.63Q351.99-54.06 348.61-51.32L348.61-51.32L348.61-51.32Q345.23-48.58 342.29-44.79L342.29-44.79L342.29-44.79Q339.35-41.01 337.21-36.58L337.21-36.58L337.21-36.58Q335.08-32.15 333.83-27.19L333.83-27.19L333.83-27.19Q332.58-22.24 332.58-17.24L332.58-17.24L332.58-17.24Q332.58-13.21 333.46-10.39L333.46-10.39L333.46-10.39Q334.35-7.57 335.96-5.80L335.96-5.80L335.96-5.80Q337.57-4.03 339.83-3.26L339.83-3.26L339.83-3.26Q342.08-2.50 344.90-2.50L344.90-2.50L344.90-2.50Q350.46-2.50 355.70-5.00L355.70-5.00L355.70-5.00Q360.94-7.49 365.65-11.48L365.65-11.48L365.65-11.48Q370.36-15.47 374.35-20.38L374.35-20.38L374.35-20.38Q378.34-25.30 381.40-30.05L381.40-30.05L384.38-27.80L384.38-27.80Q380.03-20.46 375.12-14.95L375.12-14.95L375.12-14.95Q370.20-9.43 365.05-5.72L365.05-5.72L365.05-5.72Q359.89-2.01 354.57-0.16L354.57-0.16L354.57-0.16Q349.26 1.69 344.18 1.69L344.18 1.69L344.18 1.69Q340.15 1.69 336.49 0.48L336.49 0.48L336.49 0.48Q332.82-0.73 330.04-3.18L330.04-3.18L330.04-3.18Q327.26-5.64 325.61-9.51L325.61-9.51L325.61-9.51Q323.96-13.37 323.96-18.69L323.96-18.69L323.96-18.69Q323.96-24.98 325.77-30.57L325.77-30.57L325.77-30.57Q327.58-36.17 330.60-40.93L330.60-40.93L330.60-40.93Q333.63-45.68 337.57-49.51L337.57-49.51L337.57-49.51Q341.52-53.33 345.83-55.99L345.83-55.99L345.83-55.99Q350.14-58.65 354.53-60.06L354.53-60.06L354.53-60.06Q358.92-61.47 362.79-61.47L362.79-61.47L362.79-61.47Q366.74-61.47 369.24-60.38L369.24-60.38L369.24-60.38Q371.73-59.30 373.18-57.77L373.18-57.77L373.18-57.77Q374.63-56.24 375.16-54.54L375.16-54.54L375.16-54.54Q375.68-52.85 375.68-51.64L375.68-51.64L375.68-51.64Q375.68-49.71 375.12-47.53L375.12-47.53L375.12-47.53Q374.55-45.36 373.55-43.55L373.55-43.55L373.55-43.55Q372.54-41.73 371.05-40.52L371.05-40.52L371.05-40.52Q369.56-39.32 367.79-39.32L367.79-39.32L367.79-39.32Q366.01-39.32 364.72-40.48L364.72-40.48L364.72-40.48Q363.44-41.65 363.44-43.43L363.44-43.43L363.44-43.43Q363.44-43.51 363.56-44.39L363.56-44.39L363.56-44.39Q363.68-45.28 364.32-46.29L364.32-46.29L364.32-46.29Q364.97-47.29 366.30-48.10L366.30-48.10L366.30-48.10Q367.62-48.90 370.04-48.90L370.04-48.90L371.01-48.90ZM426.84-21.91L426.84-21.91L426.84-21.91Q427.16-21.83 427.49-21.83L427.49-21.83L427.49-21.83Q427.81-21.83 428.21-21.83L428.21-21.83L428.21-21.83Q430.47-21.83 432.32-22.28L432.32-22.28L432.32-22.28Q434.17-22.72 435.74-23.69L435.74-23.69L435.74-23.69Q437.31-24.65 438.76-26.22L438.76-26.22L438.76-26.22Q440.21-27.80 441.58-30.05L441.58-30.05L444.48-27.80L444.48-27.80Q440.62-22.32 436.51-20.14L436.51-20.14L436.51-20.14Q432.40-17.97 427.81-17.97L427.81-17.97L427.81-17.97Q426.12-17.97 424.83-18.29L424.83-18.29L424.83-18.29Q421.36-12.49 417.41-8.42L417.41-8.42L417.41-8.42Q413.47-4.35 409.36-1.77L409.36-1.77L409.36-1.77Q405.25 0.81 401.22 1.97L401.22 1.97L401.22 1.97Q397.19 3.14 393.73 3.14L393.73 3.14L393.73 3.14Q390.18 3.14 387.16 1.89L387.16 1.89L387.16 1.89Q384.14 0.64 381.97-1.69L381.97-1.69L381.97-1.69Q379.79-4.03 378.58-7.25L378.58-7.25L378.58-7.25Q377.37-10.47 377.37-14.50L377.37-14.50L377.37-14.50Q377.37-18.53 378.66-22.72L378.66-22.72L378.66-22.72Q379.95-26.91 382.17-31.02L382.17-31.02L382.17-31.02Q384.38-35.13 387.36-38.95L387.36-38.95L387.36-38.95Q390.34-42.78 393.81-46.08L393.81-46.08L393.81-46.08Q397.27-49.39 400.98-52.05L400.98-52.05L400.98-52.05Q404.69-54.70 408.39-56.40L408.39-56.40L410.97-53.01L410.97-53.01Q406.70-49.95 402.31-45.28L402.31-45.28L402.31-45.28Q397.92-40.61 394.33-35.05L394.33-35.05L394.33-35.05Q390.75-29.49 388.45-23.49L388.45-23.49L388.45-23.49Q386.15-17.48 386.15-11.84L386.15-11.84L386.15-11.84Q386.15-6.77 388.41-3.99L388.41-3.99L388.41-3.99Q390.67-1.21 395.26-1.21L395.26-1.21L395.26-1.21Q398.80-1.21 402.27-2.66L402.27-2.66L402.27-2.66Q405.73-4.11 409.04-6.61L409.04-6.61L409.04-6.61Q412.34-9.10 415.40-12.53L415.40-12.53L415.40-12.53Q418.46-15.95 421.20-19.82L421.20-19.82L421.20-19.82Q418.86-21.19 417.09-23.49L417.09-23.49L417.09-23.49Q415.32-25.78 414.11-28.72L414.11-28.72L414.11-28.72Q412.90-31.66 412.30-35.05L412.30-35.05L412.30-35.05Q411.69-38.43 411.69-41.98L411.69-41.98L411.69-41.98Q411.69-45.52 412.58-48.66L412.58-48.66L412.58-48.66Q413.47-51.80 415.04-54.18L415.04-54.18L415.04-54.18Q416.61-56.56 418.70-57.93L418.70-57.93L418.70-57.93Q420.80-59.30 423.30-59.30L423.30-59.30L423.30-59.30Q425.55-59.30 427.32-58.13L427.32-58.13L427.32-58.13Q429.10-56.96 430.31-54.91L430.31-54.91L430.31-54.91Q431.51-52.85 432.16-50.03L432.16-50.03L432.16-50.03Q432.80-47.21 432.80-43.99L432.80-43.99L432.80-43.99Q432.80-41.57 432.40-38.67L432.40-38.67L432.40-38.67Q432.00-35.77 431.23-32.83L431.23-32.83L431.23-32.83Q430.47-29.89 429.38-27.03L429.38-27.03L429.38-27.03Q428.29-24.17 426.84-21.91ZM415.88-41.98L415.88-41.98L415.88-41.98Q415.88-39.64 416.29-36.90L416.29-36.90L416.29-36.90Q416.69-34.16 417.58-31.58L417.58-31.58L417.58-31.58Q418.46-29.00 419.83-26.79L419.83-26.79L419.83-26.79Q421.20-24.57 423.22-23.28L423.22-23.28L423.22-23.28Q424.67-26.10 425.67-29.04L425.67-29.04L425.67-29.04Q426.68-31.98 427.36-34.72L427.36-34.72L427.36-34.72Q428.05-37.46 428.33-39.84L428.33-39.84L428.33-39.84Q428.61-42.22 428.61-43.99L428.61-43.99L428.61-43.99Q428.61-46.41 428.21-48.42L428.21-48.42L428.21-48.42Q427.81-50.43 427.12-51.93L427.12-51.93L427.12-51.93Q426.44-53.42 425.43-54.26L425.43-54.26L425.43-54.26Q424.42-55.11 423.22-55.11L423.22-55.11L423.22-55.11Q421.60-55.11 420.23-54.02L420.23-54.02L420.23-54.02Q418.86-52.93 417.90-51.12L417.90-51.12L417.90-51.12Q416.93-49.31 416.41-46.93L416.41-46.93L416.41-46.93Q415.88-44.55 415.88-41.98ZM508.62-43.83L508.62-43.83L508.62-43.83Q510.95-46.57 513.45-48.90L513.45-48.90L513.45-48.90Q515.95-51.24 518.44-52.93L518.44-52.93L518.44-52.93Q520.94-54.62 523.40-55.55L523.40-55.55L523.40-55.55Q525.86-56.48 528.11-56.48L528.11-56.48L528.11-56.48Q529.89-56.48 531.62-55.87L531.62-55.87L531.62-55.87Q533.35-55.27 534.72-54.02L534.72-54.02L534.72-54.02Q536.09-52.77 536.89-50.84L536.89-50.84L536.89-50.84Q537.70-48.90 537.70-46.25L537.70-46.25L537.70-46.25Q537.70-42.38 536.65-38.63L536.65-38.63L536.65-38.63Q535.61-34.89 533.99-31.34L533.99-31.34L533.99-31.34Q532.38-27.80 530.57-24.49L530.57-24.49L530.57-24.49Q528.76-21.19 527.15-18.17L527.15-18.17L527.15-18.17Q525.53-15.15 524.49-12.45L524.49-12.45L524.49-12.45Q523.44-9.75 523.44-7.49L523.44-7.49L523.44-7.49Q523.44-5.72 524.37-4.95L524.37-4.95L524.37-4.95Q525.29-4.19 526.34-4.19L526.34-4.19L526.34-4.19Q528.44-4.19 531.30-6.61L531.30-6.61L531.30-6.61Q534.16-9.02 537.30-12.81L537.30-12.81L537.30-12.81Q540.44-16.60 543.62-21.15L543.62-21.15L543.62-21.15Q546.80-25.70 549.70-30.05L549.70-30.05L552.60-27.80L552.60-27.80Q551.56-26.10 549.91-23.32L549.91-23.32L549.91-23.32Q548.25-20.54 546.08-17.36L546.08-17.36L546.08-17.36Q543.90-14.18 541.33-10.92L541.33-10.92L541.33-10.92Q538.75-7.65 535.89-5.04L535.89-5.04L535.89-5.04Q533.03-2.42 529.97-0.77L529.97-0.77L529.97-0.77Q526.90 0.89 523.84 0.89L523.84 0.89L523.84 0.89Q522.15 0.89 520.58 0.40L520.58 0.40L520.58 0.40Q519.01-0.08 517.80-1.17L517.80-1.17L517.80-1.17Q516.59-2.26 515.87-4.03L515.87-4.03L515.87-4.03Q515.14-5.80 515.14-8.38L515.14-8.38L515.14-8.38Q515.14-11.92 516.35-15.31L516.35-15.31L516.35-15.31Q517.56-18.69 519.41-21.99L519.41-21.99L519.41-21.99Q521.26-25.30 523.40-28.56L523.40-28.56L523.40-28.56Q525.53-31.82 527.39-35.05L527.39-35.05L527.39-35.05Q529.24-38.27 530.45-41.53L530.45-41.53L530.45-41.53Q531.66-44.79 531.66-48.18L531.66-48.18L531.66-48.18Q531.66-49.87 531.01-50.88L531.01-50.88L531.01-50.88Q530.37-51.88 528.60-51.88L528.60-51.88L528.60-51.88Q525.78-51.88 522.63-49.59L522.63-49.59L522.63-49.59Q519.49-47.29 516.11-43.43L516.11-43.43L516.11-43.43Q512.72-39.56 509.18-34.44L509.18-34.44L509.18-34.44Q505.63-29.33 502.13-23.65L502.13-23.65L502.13-23.65Q498.63-17.97 495.20-12.13L495.20-12.13L495.20-12.13Q491.78-6.28 488.64-0.89L488.64-0.89L481.87-4.43L481.87-4.43Q486.14-13.21 489.88-20.14L489.88-20.14L489.88-20.14Q493.63-27.07 496.45-32.67L496.45-32.67L496.45-32.67Q499.27-38.27 500.88-42.90L500.88-42.90L500.88-42.90Q502.49-47.53 502.49-51.64L502.49-51.64L502.49-51.64Q502.49-52.45 502.33-53.29L502.33-53.29L502.33-53.29Q502.17-54.14 501.69-54.79L501.69-54.79L501.69-54.79Q501.20-55.43 500.44-55.87L500.44-55.87L500.44-55.87Q499.67-56.32 498.46-56.32L498.46-56.32L498.46-56.32Q495.73-56.32 492.91-53.78L492.91-53.78L492.91-53.78Q490.09-51.24 486.94-46.85L486.94-46.85L486.94-46.85Q483.80-42.46 480.22-36.62L480.22-36.62L480.22-36.62Q476.63-30.78 472.48-24.25L472.48-24.25L472.48-24.25Q468.33-17.72 463.50-10.84L463.50-10.84L463.50-10.84Q458.66-3.95 452.94 2.50L452.94 2.50L447.39-1.21L447.39-1.21Q449.96-5.08 452.82-9.39L452.82-9.39L452.82-9.39Q455.68-13.70 458.46-18.13L458.46-18.13L458.46-18.13Q461.24-22.56 463.78-26.95L463.78-26.95L463.78-26.95Q466.32-31.34 468.25-35.29L468.25-35.29L468.25-35.29Q470.19-39.24 471.31-42.54L471.31-42.54L471.31-42.54Q472.44-45.84 472.44-48.18L472.44-48.18L472.44-48.18Q472.44-50.92 471.07-52.13L471.07-52.13L471.07-52.13Q469.70-53.33 467.53-53.33L467.53-53.33L467.53-53.33Q464.95-53.33 462.49-51.48L462.49-51.48L462.49-51.48Q460.03-49.63 457.34-46.25L457.34-46.25L457.34-46.25Q454.64-42.86 451.53-38.15L451.53-38.15L451.53-38.15Q448.43-33.44 444.48-27.80L444.48-27.80L441.58-30.05L441.58-30.05Q445.85-36.82 449.28-41.98L449.28-41.98L449.28-41.98Q452.70-47.13 455.76-50.60L455.76-50.60L455.76-50.60Q458.83-54.06 461.85-55.83L461.85-55.83L461.85-55.83Q464.87-57.60 468.41-57.60L468.41-57.60L468.41-57.60Q469.46-57.60 471.11-57.20L471.11-57.20L471.11-57.20Q472.76-56.80 474.38-55.75L474.38-55.75L474.38-55.75Q475.99-54.70 477.24-52.85L477.24-52.85L477.24-52.85Q478.48-51.00 478.73-48.10L478.73-48.10L478.73-48.10Q483.24-53.90 488.15-57.36L488.15-57.36L488.15-57.36Q493.07-60.83 497.42-60.83L497.42-60.83L497.42-60.83Q500.56-60.83 502.73-59.58L502.73-59.58L502.73-59.58Q504.91-58.33 506.24-56.32L506.24-56.32L506.24-56.32Q507.57-54.30 508.17-51.76L508.17-51.76L508.17-51.76Q508.78-49.23 508.78-46.65L508.78-46.65L508.78-46.65Q508.78-46.00 508.74-45.28L508.74-45.28L508.74-45.28Q508.70-44.55 508.62-43.83ZM555.83-18.37L555.83-18.37L555.83-18.37Q555.67-17.40 555.59-16.44L555.59-16.44L555.59-16.44Q555.51-15.47 555.51-14.50L555.51-14.50L555.51-14.50Q555.51-11.60 556.35-8.98L556.35-8.98L556.35-8.98Q557.20-6.36 558.85-4.39L558.85-4.39L558.85-4.39Q560.50-2.42 562.96-1.29L562.96-1.29L562.96-1.29Q565.42-0.16 568.56-0.16L568.56-0.16L568.56-0.16Q579.11-0.16 588.94-7.33L588.94-7.33L588.94-7.33Q598.77-14.50 608.52-30.05L608.52-30.05L611.26-27.63L611.26-27.63Q605.94-18.77 600.46-12.69L600.46-12.69L600.46-12.69Q594.98-6.61 589.54-2.82L589.54-2.82L589.54-2.82Q584.11 0.97 578.87 2.66L578.87 2.66L578.87 2.66Q573.63 4.35 568.88 4.35L568.88 4.35L568.88 4.35Q565.42 4.35 561.55 3.38L561.55 3.38L561.55 3.38Q557.68 2.42 554.42 0.16L554.42 0.16L554.42 0.16Q551.15-2.09 549.02-5.88L549.02-5.88L549.02-5.88Q546.88-9.67 546.88-15.31L546.88-15.31L546.88-15.31Q546.88-21.35 548.94-26.95L548.94-26.95L548.94-26.95Q550.99-32.55 554.30-37.38L554.30-37.38L554.30-37.38Q557.60-42.22 561.87-46.20L561.87-46.20L561.87-46.20Q566.14-50.19 570.53-53.01L570.53-53.01L570.53-53.01Q574.92-55.83 579.11-57.40L579.11-57.40L579.11-57.40Q583.30-58.97 586.52-58.97L586.52-58.97L586.52-58.97Q588.62-58.97 590.79-58.33L590.79-58.33L590.79-58.33Q592.97-57.69 594.70-56.32L594.70-56.32L594.70-56.32Q596.43-54.95 597.52-52.69L597.52-52.69L597.52-52.69Q598.61-50.43 598.61-47.29L598.61-47.29L598.61-47.29Q598.61-43.02 596.63-39.28L596.63-39.28L596.63-39.28Q594.66-35.53 591.36-32.35L591.36-32.35L591.36-32.35Q588.05-29.17 583.70-26.63L583.70-26.63L583.70-26.63Q579.35-24.09 574.60-22.32L574.60-22.32L574.60-22.32Q569.85-20.54 565.01-19.50L565.01-19.50L565.01-19.50Q560.18-18.45 555.83-18.37ZM556.47-21.83L556.47-21.83L556.47-21.83Q561.87-22.40 566.62-24.09L566.62-24.09L566.62-24.09Q571.38-25.78 575.32-28.24L575.32-28.24L575.32-28.24Q579.27-30.70 582.37-33.60L582.37-33.60L582.37-33.60Q585.48-36.50 587.57-39.48L587.57-39.48L587.57-39.48Q589.67-42.46 590.79-45.20L590.79-45.20L590.79-45.20Q591.92-47.94 591.92-50.11L591.92-50.11L591.92-50.11Q591.92-52.29 590.75-53.58L590.75-53.58L590.75-53.58Q589.58-54.87 587.97-54.87L587.97-54.87L587.97-54.87Q584.43-54.87 580.00-52.33L580.00-52.33L580.00-52.33Q575.57-49.79 571.14-45.32L571.14-45.32L571.14-45.32Q566.70-40.85 562.80-34.80L562.80-34.80L562.80-34.80Q558.89-28.76 556.47-21.83Z" fill="url(#editing-shiny-gradient)"></path></g></g><g filter="url(#editing-shiny2)"><g transform="translate(-56.67780876159668, 141.18499755859375)"><path d="M184.01-99.42L187.96-97.81L187.96-97.81Q183.93-84.43 179.10-72.43L179.10-72.43L179.10-72.43Q174.27-60.42 169.91-51.16L169.91-51.16L169.91-51.16Q164.92-40.36 159.84-31.18L159.84-31.18L159.84-31.18Q155.73-23.93 152.96-18.53L152.96-18.53L152.96-18.53Q150.18-13.13 148.48-9.31L148.48-9.31L148.48-9.31Q146.79-5.48 146.07-2.94L146.07-2.94L146.07-2.94Q145.34-0.40 145.34 1.21L145.34 1.21L145.34 1.21Q145.34 2.90 146.07 3.83L146.07 3.83L146.07 3.83Q146.79 4.75 147.80 5.24L147.80 5.24L147.80 5.24Q148.81 5.72 149.81 5.84L149.81 5.84L149.81 5.84Q150.82 5.96 151.46 5.96L151.46 5.96L151.46 5.96Q154.28 5.96 158.19 4.39L158.19 4.39L158.19 4.39Q162.10 2.82 166.65-0.04L166.65-0.04L166.65-0.04Q171.20-2.90 176.20-6.97L176.20-6.97L176.20-6.97Q181.19-11.04 186.11-16.11L186.11-16.11L186.11-16.11Q191.02-21.19 195.66-27.11L195.66-27.11L195.66-27.11Q200.29-33.03 204.16-39.64L204.16-39.64L204.16-39.64Q210.36-50.43 214.06-59.62L214.06-59.62L214.06-59.62Q211.73-64.21 210.60-69.09L210.60-69.09L210.60-69.09Q209.47-73.96 209.47-78.31L209.47-78.31L209.47-78.31Q209.47-84.59 211.45-88.38L211.45-88.38L211.45-88.38Q213.42-92.17 216.97-92.17L216.97-92.17L216.97-92.17Q218.90-92.17 220.23-91.20L220.23-91.20L220.23-91.20Q221.56-90.23 222.36-88.70L222.36-88.70L222.36-88.70Q223.17-87.17 223.53-85.36L223.53-85.36L223.53-85.36Q223.89-83.55 223.89-81.77L223.89-81.77L223.89-81.77Q223.89-77.99 222.81-73.07L222.81-73.07L222.81-73.07Q221.72-68.16 219.66-62.48L219.66-62.48L219.66-62.48Q217.61-56.80 214.63-50.47L214.63-50.47L214.63-50.47Q211.65-44.15 207.78-37.54L207.78-37.54L207.78-37.54Q203.91-30.94 199.20-24.85L199.20-24.85L199.20-24.85Q194.49-18.77 189.37-13.45L189.37-13.45L189.37-13.45Q184.26-8.14 178.98-3.75L178.98-3.75L178.98-3.75Q173.70 0.64 168.75 3.75L168.75 3.75L168.75 3.75Q163.79 6.85 159.32 8.58L159.32 8.58L159.32 8.58Q154.85 10.31 151.46 10.31L151.46 10.31L151.46 10.31Q145.10 10.31 141.47 7.41L141.47 7.41L141.47 7.41Q137.85 4.51 137.85-1.85L137.85-1.85L137.85-1.85Q137.85-5.32 138.78-8.78L138.78-8.78L138.78-8.78Q139.70-12.25 141.51-16.27L141.51-16.27L141.51-16.27Q143.33-20.30 145.99-25.10L145.99-25.10L145.99-25.10Q148.65-29.89 152.11-35.93L152.11-35.93L152.11-35.93Q144.05-25.22 134.75-15.19L134.75-15.19L134.75-15.19Q125.44-5.16 114.89 2.74L114.89 2.74L114.89 2.74Q110.13 6.28 106.19 8.66L106.19 8.66L106.19 8.66Q102.24 11.04 98.98 12.49L98.98 12.49L98.98 12.49Q95.71 13.94 93.05 14.54L93.05 14.54L93.05 14.54Q90.40 15.15 88.22 15.15L88.22 15.15L88.22 15.15Q85.08 15.15 82.78 14.26L82.78 14.26L82.78 14.26Q80.49 13.37 79.00 11.88L79.00 11.88L79.00 11.88Q77.50 10.39 76.82 8.34L76.82 8.34L76.82 8.34Q76.14 6.28 76.14 3.87L76.14 3.87L76.14 3.87Q76.14-0.16 77.34-3.79L77.34-3.79L77.34-3.79Q78.55-7.41 80.89-11.20L80.89-11.20L80.89-11.20Q83.55-15.39 87.21-20.46L87.21-20.46L87.21-20.46Q90.88-25.54 94.87-31.10L94.87-31.10L94.87-31.10Q98.85-36.66 102.76-42.46L102.76-42.46L102.76-42.46Q106.67-48.26 109.77-53.98L109.77-53.98L109.77-53.98Q112.87-59.70 114.77-65.10L114.77-65.10L114.77-65.10Q116.66-70.50 116.66-75.25L116.66-75.25L116.66-75.25Q116.66-82.74 113.72-88.95L113.72-88.95L113.72-88.95Q110.78-95.15 105.30-99.58L105.30-99.58L105.30-99.58Q99.82-104.01 92.05-106.43L92.05-106.43L92.05-106.43Q84.27-108.85 74.60-108.85L74.60-108.85L74.60-108.85Q61.31-108.85 50.19-104.98L50.19-104.98L50.19-104.98Q39.07-101.11 31.06-94.30L31.06-94.30L31.06-94.30Q23.04-87.50 18.57-78.27L18.57-78.27L18.57-78.27Q14.10-69.05 14.10-58.41L14.10-58.41L14.10-58.41Q14.10-51.88 16.15-46.53L16.15-46.53L16.15-46.53Q18.21-41.17 21.95-37.30L21.95-37.30L21.95-37.30Q25.70-33.44 31.06-31.30L31.06-31.30L31.06-31.30Q36.42-29.17 43.02-29.17L43.02-29.17L43.02-29.17Q50.68-29.17 57.20-31.86L57.20-31.86L57.20-31.86Q63.73-34.56 69.09-39.24L69.09-39.24L69.09-39.24Q74.44-43.91 78.63-50.23L78.63-50.23L78.63-50.23Q82.82-56.56 85.72-63.81L85.72-63.81L89.35-62.52L89.35-62.52Q81.53-43.10 68.64-33.15L68.64-33.15L68.64-33.15Q55.75-23.20 38.03-23.20L38.03-23.20L38.03-23.20Q30.53-23.20 24.41-25.74L24.41-25.74L24.41-25.74Q18.29-28.28 13.94-32.83L13.94-32.83L13.94-32.83Q9.59-37.38 7.21-43.71L7.21-43.71L7.21-43.71Q4.83-50.03 4.83-57.60L4.83-57.60L4.83-57.60Q4.83-67.84 8.22-75.97L8.22-75.97L8.22-75.97Q11.60-84.11 17.20-90.27L17.20-90.27L17.20-90.27Q22.80-96.44 29.93-100.79L29.93-100.79L29.93-100.79Q37.06-105.14 44.55-107.88L44.55-107.88L44.55-107.88Q52.05-110.62 59.22-111.87L59.22-111.87L59.22-111.87Q66.39-113.12 72.11-113.12L72.11-113.12L72.11-113.12Q82.90-113.12 92.09-110.50L92.09-110.50L92.09-110.50Q101.27-107.88 108.00-102.68L108.00-102.68L108.00-102.68Q114.73-97.49 118.51-89.83L118.51-89.83L118.51-89.83Q122.30-82.18 122.30-72.11L122.30-72.11L122.30-72.11Q122.30-64.78 119.52-55.87L119.52-55.87L119.52-55.87Q116.74-46.97 109.89-36.74L109.89-36.74L109.89-36.74Q103.61-27.31 98.45-20.38L98.45-20.38L98.45-20.38Q93.30-13.45 89.63-8.42L89.63-8.42L89.63-8.42Q85.96-3.38 83.95 0L83.95 0L83.95 0Q81.94 3.38 81.94 5.64L81.94 5.64L81.94 5.64Q81.94 7.98 83.63 9.43L83.63 9.43L83.63 9.43Q85.32 10.88 88.30 10.88L88.30 10.88L88.30 10.88Q92.57 10.88 98.65 7.98L98.65 7.98L98.65 7.98Q104.74 5.08 112.31-0.56L112.31-0.56L112.31-0.56Q119.80-6.12 126.61-12.81L126.61-12.81L126.61-12.81Q133.42-19.50 139.50-26.71L139.50-26.71L139.50-26.71Q145.58-33.92 150.98-41.41L150.98-41.41L150.98-41.41Q156.38-48.90 160.97-56.11L160.97-56.11L160.97-56.11Q165.56-63.33 169.35-70.05L169.35-70.05L169.35-70.05Q173.14-76.78 176.04-82.46L176.04-82.46L176.04-82.46Q178.94-88.14 180.95-92.53L180.95-92.53L180.95-92.53Q182.97-96.92 184.01-99.42L184.01-99.42ZM216.24-65.18L216.24-65.18L216.24-65.18Q218.09-70.33 218.90-74.52L218.90-74.52L218.90-74.52Q219.70-78.71 219.70-81.69L219.70-81.69L219.70-81.69Q219.70-82.26 219.66-83.35L219.66-83.35L219.66-83.35Q219.62-84.43 219.34-85.44L219.34-85.44L219.34-85.44Q219.06-86.45 218.50-87.21L218.50-87.21L218.50-87.21Q217.93-87.98 216.97-87.98L216.97-87.98L216.97-87.98Q215.60-87.98 214.67-85.24L214.67-85.24L214.67-85.24Q213.74-82.50 213.74-78.55L213.74-78.55L213.74-78.55Q213.74-75.57 214.31-72.15L214.31-72.15L214.31-72.15Q214.87-68.72 216.24-65.18ZM227.60-18.37L227.60-18.37L227.60-18.37Q227.44-17.40 227.36-16.44L227.36-16.44L227.36-16.44Q227.28-15.47 227.28-14.50L227.28-14.50L227.28-14.50Q227.28-11.60 228.12-8.98L228.12-8.98L228.12-8.98Q228.97-6.36 230.62-4.39L230.62-4.39L230.62-4.39Q232.27-2.42 234.73-1.29L234.73-1.29L234.73-1.29Q237.19-0.16 240.33-0.16L240.33-0.16L240.33-0.16Q250.88-0.16 260.71-7.33L260.71-7.33L260.71-7.33Q270.54-14.50 280.29-30.05L280.29-30.05L283.03-27.63L283.03-27.63Q277.71-18.77 272.23-12.69L272.23-12.69L272.23-12.69Q266.76-6.61 261.32-2.82L261.32-2.82L261.32-2.82Q255.88 0.97 250.64 2.66L250.64 2.66L250.64 2.66Q245.41 4.35 240.65 4.35L240.65 4.35L240.65 4.35Q237.19 4.35 233.32 3.38L233.32 3.38L233.32 3.38Q229.45 2.42 226.19 0.16L226.19 0.16L226.19 0.16Q222.93-2.09 220.79-5.88L220.79-5.88L220.79-5.88Q218.66-9.67 218.66-15.31L218.66-15.31L218.66-15.31Q218.66-21.35 220.71-26.95L220.71-26.95L220.71-26.95Q222.77-32.55 226.07-37.38L226.07-37.38L226.07-37.38Q229.37-42.22 233.64-46.20L233.64-46.20L233.64-46.20Q237.91-50.19 242.30-53.01L242.30-53.01L242.30-53.01Q246.69-55.83 250.88-57.40L250.88-57.40L250.88-57.40Q255.07-58.97 258.30-58.97L258.30-58.97L258.30-58.97Q260.39-58.97 262.57-58.33L262.57-58.33L262.57-58.33Q264.74-57.69 266.47-56.32L266.47-56.32L266.47-56.32Q268.21-54.95 269.29-52.69L269.29-52.69L269.29-52.69Q270.38-50.43 270.38-47.29L270.38-47.29L270.38-47.29Q270.38-43.02 268.41-39.28L268.41-39.28L268.41-39.28Q266.43-35.53 263.13-32.35L263.13-32.35L263.13-32.35Q259.83-29.17 255.48-26.63L255.48-26.63L255.48-26.63Q251.13-24.09 246.37-22.32L246.37-22.32L246.37-22.32Q241.62-20.54 236.78-19.50L236.78-19.50L236.78-19.50Q231.95-18.45 227.60-18.37ZM228.24-21.83L228.24-21.83L228.24-21.83Q233.64-22.40 238.40-24.09L238.40-24.09L238.40-24.09Q243.15-25.78 247.10-28.24L247.10-28.24L247.10-28.24Q251.04-30.70 254.15-33.60L254.15-33.60L254.15-33.60Q257.25-36.50 259.34-39.48L259.34-39.48L259.34-39.48Q261.44-42.46 262.57-45.20L262.57-45.20L262.57-45.20Q263.69-47.94 263.69-50.11L263.69-50.11L263.69-50.11Q263.69-52.29 262.53-53.58L262.53-53.58L262.53-53.58Q261.36-54.87 259.75-54.87L259.75-54.87L259.75-54.87Q256.20-54.87 251.77-52.33L251.77-52.33L251.77-52.33Q247.34-49.79 242.91-45.32L242.91-45.32L242.91-45.32Q238.48-40.85 234.57-34.80L234.57-34.80L234.57-34.80Q230.66-28.76 228.24-21.83ZM338.62-117.22L338.62-117.22L338.62-117.22Q341.44-117.22 343.33-115.85L343.33-115.85L343.33-115.85Q345.23-114.48 345.23-110.86L345.23-110.86L345.23-110.86Q345.23-108.36 344.22-104.90L344.22-104.90L344.22-104.90Q343.21-101.43 341.48-97.36L341.48-97.36L341.48-97.36Q339.75-93.30 337.41-88.82L337.41-88.82L337.41-88.82Q335.08-84.35 332.38-79.92L332.38-79.92L332.38-79.92Q329.68-75.49 326.74-71.30L326.74-71.30L326.74-71.30Q323.80-67.11 320.90-63.57L320.90-63.57L320.90-63.57Q315.10-56.40 310.87-51.48L310.87-51.48L310.87-51.48Q306.64-46.57 303.57-43.14L303.57-43.14L303.57-43.14Q300.51-39.72 298.42-37.58L298.42-37.58L298.42-37.58Q296.32-35.45 294.71-33.92L294.71-33.92L294.71-33.92Q293.10-32.39 291.73-31.14L291.73-31.14L291.73-31.14Q290.36-29.89 288.91-28.36L288.91-28.36L288.91-28.36Q288.27-25.30 288.31-22.52L288.31-22.52L288.31-22.52Q288.35-19.74 288.35-17.40L288.35-17.40L288.35-17.40Q288.35-10.39 290.60-7.01L290.60-7.01L290.60-7.01Q292.86-3.63 296.97-3.63L296.97-3.63L296.97-3.63Q299.71-3.63 302.49-5.04L302.49-5.04L302.49-5.04Q305.27-6.45 308.01-8.70L308.01-8.70L308.01-8.70Q310.74-10.96 313.32-13.82L313.32-13.82L313.32-13.82Q315.90-16.68 318.20-19.62L318.20-19.62L318.20-19.62Q320.49-22.56 322.35-25.30L322.35-25.30L322.35-25.30Q324.20-28.04 325.57-30.05L325.57-30.05L328.55-27.80L328.55-27.80Q328.31-27.47 326.98-25.26L326.98-25.26L326.98-25.26Q325.65-23.04 323.47-19.90L323.47-19.90L323.47-19.90Q321.30-16.76 318.32-13.17L318.32-13.17L318.32-13.17Q315.34-9.59 311.87-6.53L311.87-6.53L311.87-6.53Q308.41-3.46 304.58-1.45L304.58-1.45L304.58-1.45Q300.75 0.56 296.81 0.56L296.81 0.56L296.81 0.56Q293.50 0.56 290.48-0.68L290.48-0.68L290.48-0.68Q287.46-1.93 285.16-4.63L285.16-4.63L285.16-4.63Q282.87-7.33 281.46-11.52L281.46-11.52L281.46-11.52Q280.05-15.71 280.05-21.59L280.05-21.59L280.05-21.59Q280.05-28.92 281.78-36.94L281.78-36.94L281.78-36.94Q283.51-44.96 286.49-53.05L286.49-53.05L286.49-53.05Q289.48-61.15 293.50-69.05L293.50-69.05L293.50-69.05Q297.53-76.94 302.08-84.07L302.08-84.07L302.08-84.07Q306.64-91.20 311.59-97.28L311.59-97.28L311.59-97.28Q316.55-103.37 321.34-107.80L321.34-107.80L321.34-107.80Q326.13-112.23 330.56-114.73L330.56-114.73L330.56-114.73Q335.00-117.22 338.62-117.22ZM290.36-35.53L290.36-35.53L290.36-35.53Q297.21-42.62 303.61-49.91L303.61-49.91L303.61-49.91Q310.02-57.20 315.62-64.33L315.62-64.33L315.62-64.33Q321.22-71.46 325.89-78.19L325.89-78.19L325.89-78.19Q330.56-84.92 333.87-90.88L333.87-90.88L333.87-90.88Q337.17-96.84 339.02-101.76L339.02-101.76L339.02-101.76Q340.88-106.67 340.88-110.21L340.88-110.21L340.88-110.21Q340.88-110.86 340.23-111.95L340.23-111.95L340.23-111.95Q339.59-113.03 338.70-113.03L338.70-113.03L338.70-113.03Q336.20-113.03 332.09-109.73L332.09-109.73L332.09-109.73Q327.99-106.43 323.19-100.75L323.19-100.75L323.19-100.75Q318.40-95.07 313.28-87.50L313.28-87.50L313.28-87.50Q308.17-79.92 303.65-71.30L303.65-71.30L303.65-71.30Q299.14-62.68 295.60-53.50L295.60-53.50L295.60-53.50Q292.05-44.31 290.36-35.53ZM371.01-48.90L371.01-48.90L371.01-48.90Q371.49-50.19 371.49-51.64L371.49-51.64L371.49-51.64Q371.49-54.22 369.44-55.71L369.44-55.71L369.44-55.71Q367.38-57.20 362.95-57.20L362.95-57.20L362.95-57.20Q359.33-57.20 355.66-55.63L355.66-55.63L355.66-55.63Q351.99-54.06 348.61-51.32L348.61-51.32L348.61-51.32Q345.23-48.58 342.29-44.79L342.29-44.79L342.29-44.79Q339.35-41.01 337.21-36.58L337.21-36.58L337.21-36.58Q335.08-32.15 333.83-27.19L333.83-27.19L333.83-27.19Q332.58-22.24 332.58-17.24L332.58-17.24L332.58-17.24Q332.58-13.21 333.46-10.39L333.46-10.39L333.46-10.39Q334.35-7.57 335.96-5.80L335.96-5.80L335.96-5.80Q337.57-4.03 339.83-3.26L339.83-3.26L339.83-3.26Q342.08-2.50 344.90-2.50L344.90-2.50L344.90-2.50Q350.46-2.50 355.70-5.00L355.70-5.00L355.70-5.00Q360.94-7.49 365.65-11.48L365.65-11.48L365.65-11.48Q370.36-15.47 374.35-20.38L374.35-20.38L374.35-20.38Q378.34-25.30 381.40-30.05L381.40-30.05L384.38-27.80L384.38-27.80Q380.03-20.46 375.12-14.95L375.12-14.95L375.12-14.95Q370.20-9.43 365.05-5.72L365.05-5.72L365.05-5.72Q359.89-2.01 354.57-0.16L354.57-0.16L354.57-0.16Q349.26 1.69 344.18 1.69L344.18 1.69L344.18 1.69Q340.15 1.69 336.49 0.48L336.49 0.48L336.49 0.48Q332.82-0.73 330.04-3.18L330.04-3.18L330.04-3.18Q327.26-5.64 325.61-9.51L325.61-9.51L325.61-9.51Q323.96-13.37 323.96-18.69L323.96-18.69L323.96-18.69Q323.96-24.98 325.77-30.57L325.77-30.57L325.77-30.57Q327.58-36.17 330.60-40.93L330.60-40.93L330.60-40.93Q333.63-45.68 337.57-49.51L337.57-49.51L337.57-49.51Q341.52-53.33 345.83-55.99L345.83-55.99L345.83-55.99Q350.14-58.65 354.53-60.06L354.53-60.06L354.53-60.06Q358.92-61.47 362.79-61.47L362.79-61.47L362.79-61.47Q366.74-61.47 369.24-60.38L369.24-60.38L369.24-60.38Q371.73-59.30 373.18-57.77L373.18-57.77L373.18-57.77Q374.63-56.24 375.16-54.54L375.16-54.54L375.16-54.54Q375.68-52.85 375.68-51.64L375.68-51.64L375.68-51.64Q375.68-49.71 375.12-47.53L375.12-47.53L375.12-47.53Q374.55-45.36 373.55-43.55L373.55-43.55L373.55-43.55Q372.54-41.73 371.05-40.52L371.05-40.52L371.05-40.52Q369.56-39.32 367.79-39.32L367.79-39.32L367.79-39.32Q366.01-39.32 364.72-40.48L364.72-40.48L364.72-40.48Q363.44-41.65 363.44-43.43L363.44-43.43L363.44-43.43Q363.44-43.51 363.56-44.39L363.56-44.39L363.56-44.39Q363.68-45.28 364.32-46.29L364.32-46.29L364.32-46.29Q364.97-47.29 366.30-48.10L366.30-48.10L366.30-48.10Q367.62-48.90 370.04-48.90L370.04-48.90L371.01-48.90ZM426.84-21.91L426.84-21.91L426.84-21.91Q427.16-21.83 427.49-21.83L427.49-21.83L427.49-21.83Q427.81-21.83 428.21-21.83L428.21-21.83L428.21-21.83Q430.47-21.83 432.32-22.28L432.32-22.28L432.32-22.28Q434.17-22.72 435.74-23.69L435.74-23.69L435.74-23.69Q437.31-24.65 438.76-26.22L438.76-26.22L438.76-26.22Q440.21-27.80 441.58-30.05L441.58-30.05L444.48-27.80L444.48-27.80Q440.62-22.32 436.51-20.14L436.51-20.14L436.51-20.14Q432.40-17.97 427.81-17.97L427.81-17.97L427.81-17.97Q426.12-17.97 424.83-18.29L424.83-18.29L424.83-18.29Q421.36-12.49 417.41-8.42L417.41-8.42L417.41-8.42Q413.47-4.35 409.36-1.77L409.36-1.77L409.36-1.77Q405.25 0.81 401.22 1.97L401.22 1.97L401.22 1.97Q397.19 3.14 393.73 3.14L393.73 3.14L393.73 3.14Q390.18 3.14 387.16 1.89L387.16 1.89L387.16 1.89Q384.14 0.64 381.97-1.69L381.97-1.69L381.97-1.69Q379.79-4.03 378.58-7.25L378.58-7.25L378.58-7.25Q377.37-10.47 377.37-14.50L377.37-14.50L377.37-14.50Q377.37-18.53 378.66-22.72L378.66-22.72L378.66-22.72Q379.95-26.91 382.17-31.02L382.17-31.02L382.17-31.02Q384.38-35.13 387.36-38.95L387.36-38.95L387.36-38.95Q390.34-42.78 393.81-46.08L393.81-46.08L393.81-46.08Q397.27-49.39 400.98-52.05L400.98-52.05L400.98-52.05Q404.69-54.70 408.39-56.40L408.39-56.40L410.97-53.01L410.97-53.01Q406.70-49.95 402.31-45.28L402.31-45.28L402.31-45.28Q397.92-40.61 394.33-35.05L394.33-35.05L394.33-35.05Q390.75-29.49 388.45-23.49L388.45-23.49L388.45-23.49Q386.15-17.48 386.15-11.84L386.15-11.84L386.15-11.84Q386.15-6.77 388.41-3.99L388.41-3.99L388.41-3.99Q390.67-1.21 395.26-1.21L395.26-1.21L395.26-1.21Q398.80-1.21 402.27-2.66L402.27-2.66L402.27-2.66Q405.73-4.11 409.04-6.61L409.04-6.61L409.04-6.61Q412.34-9.10 415.40-12.53L415.40-12.53L415.40-12.53Q418.46-15.95 421.20-19.82L421.20-19.82L421.20-19.82Q418.86-21.19 417.09-23.49L417.09-23.49L417.09-23.49Q415.32-25.78 414.11-28.72L414.11-28.72L414.11-28.72Q412.90-31.66 412.30-35.05L412.30-35.05L412.30-35.05Q411.69-38.43 411.69-41.98L411.69-41.98L411.69-41.98Q411.69-45.52 412.58-48.66L412.58-48.66L412.58-48.66Q413.47-51.80 415.04-54.18L415.04-54.18L415.04-54.18Q416.61-56.56 418.70-57.93L418.70-57.93L418.70-57.93Q420.80-59.30 423.30-59.30L423.30-59.30L423.30-59.30Q425.55-59.30 427.32-58.13L427.32-58.13L427.32-58.13Q429.10-56.96 430.31-54.91L430.31-54.91L430.31-54.91Q431.51-52.85 432.16-50.03L432.16-50.03L432.16-50.03Q432.80-47.21 432.80-43.99L432.80-43.99L432.80-43.99Q432.80-41.57 432.40-38.67L432.40-38.67L432.40-38.67Q432.00-35.77 431.23-32.83L431.23-32.83L431.23-32.83Q430.47-29.89 429.38-27.03L429.38-27.03L429.38-27.03Q428.29-24.17 426.84-21.91ZM415.88-41.98L415.88-41.98L415.88-41.98Q415.88-39.64 416.29-36.90L416.29-36.90L416.29-36.90Q416.69-34.16 417.58-31.58L417.58-31.58L417.58-31.58Q418.46-29.00 419.83-26.79L419.83-26.79L419.83-26.79Q421.20-24.57 423.22-23.28L423.22-23.28L423.22-23.28Q424.67-26.10 425.67-29.04L425.67-29.04L425.67-29.04Q426.68-31.98 427.36-34.72L427.36-34.72L427.36-34.72Q428.05-37.46 428.33-39.84L428.33-39.84L428.33-39.84Q428.61-42.22 428.61-43.99L428.61-43.99L428.61-43.99Q428.61-46.41 428.21-48.42L428.21-48.42L428.21-48.42Q427.81-50.43 427.12-51.93L427.12-51.93L427.12-51.93Q426.44-53.42 425.43-54.26L425.43-54.26L425.43-54.26Q424.42-55.11 423.22-55.11L423.22-55.11L423.22-55.11Q421.60-55.11 420.23-54.02L420.23-54.02L420.23-54.02Q418.86-52.93 417.90-51.12L417.90-51.12L417.90-51.12Q416.93-49.31 416.41-46.93L416.41-46.93L416.41-46.93Q415.88-44.55 415.88-41.98ZM508.62-43.83L508.62-43.83L508.62-43.83Q510.95-46.57 513.45-48.90L513.45-48.90L513.45-48.90Q515.95-51.24 518.44-52.93L518.44-52.93L518.44-52.93Q520.94-54.62 523.40-55.55L523.40-55.55L523.40-55.55Q525.86-56.48 528.11-56.48L528.11-56.48L528.11-56.48Q529.89-56.48 531.62-55.87L531.62-55.87L531.62-55.87Q533.35-55.27 534.72-54.02L534.72-54.02L534.72-54.02Q536.09-52.77 536.89-50.84L536.89-50.84L536.89-50.84Q537.70-48.90 537.70-46.25L537.70-46.25L537.70-46.25Q537.70-42.38 536.65-38.63L536.65-38.63L536.65-38.63Q535.61-34.89 533.99-31.34L533.99-31.34L533.99-31.34Q532.38-27.80 530.57-24.49L530.57-24.49L530.57-24.49Q528.76-21.19 527.15-18.17L527.15-18.17L527.15-18.17Q525.53-15.15 524.49-12.45L524.49-12.45L524.49-12.45Q523.44-9.75 523.44-7.49L523.44-7.49L523.44-7.49Q523.44-5.72 524.37-4.95L524.37-4.95L524.37-4.95Q525.29-4.19 526.34-4.19L526.34-4.19L526.34-4.19Q528.44-4.19 531.30-6.61L531.30-6.61L531.30-6.61Q534.16-9.02 537.30-12.81L537.30-12.81L537.30-12.81Q540.44-16.60 543.62-21.15L543.62-21.15L543.62-21.15Q546.80-25.70 549.70-30.05L549.70-30.05L552.60-27.80L552.60-27.80Q551.56-26.10 549.91-23.32L549.91-23.32L549.91-23.32Q548.25-20.54 546.08-17.36L546.08-17.36L546.08-17.36Q543.90-14.18 541.33-10.92L541.33-10.92L541.33-10.92Q538.75-7.65 535.89-5.04L535.89-5.04L535.89-5.04Q533.03-2.42 529.97-0.77L529.97-0.77L529.97-0.77Q526.90 0.89 523.84 0.89L523.84 0.89L523.84 0.89Q522.15 0.89 520.58 0.40L520.58 0.40L520.58 0.40Q519.01-0.08 517.80-1.17L517.80-1.17L517.80-1.17Q516.59-2.26 515.87-4.03L515.87-4.03L515.87-4.03Q515.14-5.80 515.14-8.38L515.14-8.38L515.14-8.38Q515.14-11.92 516.35-15.31L516.35-15.31L516.35-15.31Q517.56-18.69 519.41-21.99L519.41-21.99L519.41-21.99Q521.26-25.30 523.40-28.56L523.40-28.56L523.40-28.56Q525.53-31.82 527.39-35.05L527.39-35.05L527.39-35.05Q529.24-38.27 530.45-41.53L530.45-41.53L530.45-41.53Q531.66-44.79 531.66-48.18L531.66-48.18L531.66-48.18Q531.66-49.87 531.01-50.88L531.01-50.88L531.01-50.88Q530.37-51.88 528.60-51.88L528.60-51.88L528.60-51.88Q525.78-51.88 522.63-49.59L522.63-49.59L522.63-49.59Q519.49-47.29 516.11-43.43L516.11-43.43L516.11-43.43Q512.72-39.56 509.18-34.44L509.18-34.44L509.18-34.44Q505.63-29.33 502.13-23.65L502.13-23.65L502.13-23.65Q498.63-17.97 495.20-12.13L495.20-12.13L495.20-12.13Q491.78-6.28 488.64-0.89L488.64-0.89L481.87-4.43L481.87-4.43Q486.14-13.21 489.88-20.14L489.88-20.14L489.88-20.14Q493.63-27.07 496.45-32.67L496.45-32.67L496.45-32.67Q499.27-38.27 500.88-42.90L500.88-42.90L500.88-42.90Q502.49-47.53 502.49-51.64L502.49-51.64L502.49-51.64Q502.49-52.45 502.33-53.29L502.33-53.29L502.33-53.29Q502.17-54.14 501.69-54.79L501.69-54.79L501.69-54.79Q501.20-55.43 500.44-55.87L500.44-55.87L500.44-55.87Q499.67-56.32 498.46-56.32L498.46-56.32L498.46-56.32Q495.73-56.32 492.91-53.78L492.91-53.78L492.91-53.78Q490.09-51.24 486.94-46.85L486.94-46.85L486.94-46.85Q483.80-42.46 480.22-36.62L480.22-36.62L480.22-36.62Q476.63-30.78 472.48-24.25L472.48-24.25L472.48-24.25Q468.33-17.72 463.50-10.84L463.50-10.84L463.50-10.84Q458.66-3.95 452.94 2.50L452.94 2.50L447.39-1.21L447.39-1.21Q449.96-5.08 452.82-9.39L452.82-9.39L452.82-9.39Q455.68-13.70 458.46-18.13L458.46-18.13L458.46-18.13Q461.24-22.56 463.78-26.95L463.78-26.95L463.78-26.95Q466.32-31.34 468.25-35.29L468.25-35.29L468.25-35.29Q470.19-39.24 471.31-42.54L471.31-42.54L471.31-42.54Q472.44-45.84 472.44-48.18L472.44-48.18L472.44-48.18Q472.44-50.92 471.07-52.13L471.07-52.13L471.07-52.13Q469.70-53.33 467.53-53.33L467.53-53.33L467.53-53.33Q464.95-53.33 462.49-51.48L462.49-51.48L462.49-51.48Q460.03-49.63 457.34-46.25L457.34-46.25L457.34-46.25Q454.64-42.86 451.53-38.15L451.53-38.15L451.53-38.15Q448.43-33.44 444.48-27.80L444.48-27.80L441.58-30.05L441.58-30.05Q445.85-36.82 449.28-41.98L449.28-41.98L449.28-41.98Q452.70-47.13 455.76-50.60L455.76-50.60L455.76-50.60Q458.83-54.06 461.85-55.83L461.85-55.83L461.85-55.83Q464.87-57.60 468.41-57.60L468.41-57.60L468.41-57.60Q469.46-57.60 471.11-57.20L471.11-57.20L471.11-57.20Q472.76-56.80 474.38-55.75L474.38-55.75L474.38-55.75Q475.99-54.70 477.24-52.85L477.24-52.85L477.24-52.85Q478.48-51.00 478.73-48.10L478.73-48.10L478.73-48.10Q483.24-53.90 488.15-57.36L488.15-57.36L488.15-57.36Q493.07-60.83 497.42-60.83L497.42-60.83L497.42-60.83Q500.56-60.83 502.73-59.58L502.73-59.58L502.73-59.58Q504.91-58.33 506.24-56.32L506.24-56.32L506.24-56.32Q507.57-54.30 508.17-51.76L508.17-51.76L508.17-51.76Q508.78-49.23 508.78-46.65L508.78-46.65L508.78-46.65Q508.78-46.00 508.74-45.28L508.74-45.28L508.74-45.28Q508.70-44.55 508.62-43.83ZM555.83-18.37L555.83-18.37L555.83-18.37Q555.67-17.40 555.59-16.44L555.59-16.44L555.59-16.44Q555.51-15.47 555.51-14.50L555.51-14.50L555.51-14.50Q555.51-11.60 556.35-8.98L556.35-8.98L556.35-8.98Q557.20-6.36 558.85-4.39L558.85-4.39L558.85-4.39Q560.50-2.42 562.96-1.29L562.96-1.29L562.96-1.29Q565.42-0.16 568.56-0.16L568.56-0.16L568.56-0.16Q579.11-0.16 588.94-7.33L588.94-7.33L588.94-7.33Q598.77-14.50 608.52-30.05L608.52-30.05L611.26-27.63L611.26-27.63Q605.94-18.77 600.46-12.69L600.46-12.69L600.46-12.69Q594.98-6.61 589.54-2.82L589.54-2.82L589.54-2.82Q584.11 0.97 578.87 2.66L578.87 2.66L578.87 2.66Q573.63 4.35 568.88 4.35L568.88 4.35L568.88 4.35Q565.42 4.35 561.55 3.38L561.55 3.38L561.55 3.38Q557.68 2.42 554.42 0.16L554.42 0.16L554.42 0.16Q551.15-2.09 549.02-5.88L549.02-5.88L549.02-5.88Q546.88-9.67 546.88-15.31L546.88-15.31L546.88-15.31Q546.88-21.35 548.94-26.95L548.94-26.95L548.94-26.95Q550.99-32.55 554.30-37.38L554.30-37.38L554.30-37.38Q557.60-42.22 561.87-46.20L561.87-46.20L561.87-46.20Q566.14-50.19 570.53-53.01L570.53-53.01L570.53-53.01Q574.92-55.83 579.11-57.40L579.11-57.40L579.11-57.40Q583.30-58.97 586.52-58.97L586.52-58.97L586.52-58.97Q588.62-58.97 590.79-58.33L590.79-58.33L590.79-58.33Q592.97-57.69 594.70-56.32L594.70-56.32L594.70-56.32Q596.43-54.95 597.52-52.69L597.52-52.69L597.52-52.69Q598.61-50.43 598.61-47.29L598.61-47.29L598.61-47.29Q598.61-43.02 596.63-39.28L596.63-39.28L596.63-39.28Q594.66-35.53 591.36-32.35L591.36-32.35L591.36-32.35Q588.05-29.17 583.70-26.63L583.70-26.63L583.70-26.63Q579.35-24.09 574.60-22.32L574.60-22.32L574.60-22.32Q569.85-20.54 565.01-19.50L565.01-19.50L565.01-19.50Q560.18-18.45 555.83-18.37ZM556.47-21.83L556.47-21.83L556.47-21.83Q561.87-22.40 566.62-24.09L566.62-24.09L566.62-24.09Q571.38-25.78 575.32-28.24L575.32-28.24L575.32-28.24Q579.27-30.70 582.37-33.60L582.37-33.60L582.37-33.60Q585.48-36.50 587.57-39.48L587.57-39.48L587.57-39.48Q589.67-42.46 590.79-45.20L590.79-45.20L590.79-45.20Q591.92-47.94 591.92-50.11L591.92-50.11L591.92-50.11Q591.92-52.29 590.75-53.58L590.75-53.58L590.75-53.58Q589.58-54.87 587.97-54.87L587.97-54.87L587.97-54.87Q584.43-54.87 580.00-52.33L580.00-52.33L580.00-52.33Q575.57-49.79 571.14-45.32L571.14-45.32L571.14-45.32Q566.70-40.85 562.80-34.80L562.80-34.80L562.80-34.80Q558.89-28.76 556.47-21.83Z" fill="url(#editing-shiny-gradient2)"></path></g></g><style>text {
  font-size: 64px;
  font-family: Arial Black;
  dominant-baseline: central;
  text-anchor: middle;
}</style></svg>